<svg width="20" height="17" viewBox="0 0 20 17" fill="none" xmlns="http://www.w3.org/2000/svg">
<path d="M6.29 16.251C13.837 16.251 17.965 9.99796 17.965 4.57596C17.965 4.39796 17.965 4.22096 17.953 4.04596C18.7562 3.46448 19.4493 2.74457 20 1.91996C19.2511 2.25196 18.4566 2.46972 17.643 2.56596C18.4996 2.05302 19.1408 1.24631 19.447 0.295957C18.6417 0.773843 17.7607 1.11069 16.842 1.29196C16.2234 0.633722 15.405 0.197791 14.5136 0.0516617C13.6222 -0.0944679 12.7075 0.057356 11.9111 0.483626C11.1147 0.909895 10.4811 1.58683 10.1083 2.40962C9.7355 3.2324 9.64437 4.15514 9.849 5.03496C8.21759 4.9532 6.6216 4.52928 5.16465 3.79073C3.70769 3.05217 2.42233 2.01548 1.392 0.747957C0.867318 1.65116 0.706589 2.72038 0.942536 3.73792C1.17848 4.75547 1.79337 5.64483 2.662 6.22496C2.00926 6.20606 1.37063 6.03046 0.8 5.71296V5.76496C0.800389 6.71225 1.1284 7.63026 1.7284 8.36331C2.3284 9.09637 3.16347 9.59934 4.092 9.78696C3.48781 9.95167 2.85389 9.97562 2.239 9.85696C2.50116 10.6724 3.01168 11.3856 3.69913 11.8966C4.38658 12.4076 5.21657 12.6909 6.073 12.707C5.22212 13.3755 4.24779 13.8698 3.20573 14.1615C2.16367 14.4532 1.07432 14.5366 0 14.407C1.8766 15.6113 4.06019 16.2501 6.29 16.247" fill="#A1A1A1"/>
</svg>
